%TF.GenerationSoftware,KiCad,Pcbnew,7.0.7*%
%TF.CreationDate,2023-12-05T07:46:16-07:00*%
%TF.ProjectId,kicad,6b696361-642e-46b6-9963-61645f706362,rev?*%
%TF.SameCoordinates,Original*%
%TF.FileFunction,Legend,Bot*%
%TF.FilePolarity,Positive*%
%FSLAX46Y46*%
G04 Gerber Fmt 4.6, Leading zero omitted, Abs format (unit mm)*
G04 Created by KiCad (PCBNEW 7.0.7) date 2023-12-05 07:46:16*
%MOMM*%
%LPD*%
G01*
G04 APERTURE LIST*
%ADD10C,0.150000*%
%ADD11C,0.120000*%
G04 APERTURE END LIST*
D10*
X114964819Y-96456666D02*
X114488628Y-96123333D01*
X114964819Y-95885238D02*
X113964819Y-95885238D01*
X113964819Y-95885238D02*
X113964819Y-96266190D01*
X113964819Y-96266190D02*
X114012438Y-96361428D01*
X114012438Y-96361428D02*
X114060057Y-96409047D01*
X114060057Y-96409047D02*
X114155295Y-96456666D01*
X114155295Y-96456666D02*
X114298152Y-96456666D01*
X114298152Y-96456666D02*
X114393390Y-96409047D01*
X114393390Y-96409047D02*
X114441009Y-96361428D01*
X114441009Y-96361428D02*
X114488628Y-96266190D01*
X114488628Y-96266190D02*
X114488628Y-95885238D01*
X114441009Y-96885238D02*
X114441009Y-97218571D01*
X114964819Y-97361428D02*
X114964819Y-96885238D01*
X114964819Y-96885238D02*
X113964819Y-96885238D01*
X113964819Y-96885238D02*
X113964819Y-97361428D01*
X114441009Y-98123333D02*
X114441009Y-97790000D01*
X114964819Y-97790000D02*
X113964819Y-97790000D01*
X113964819Y-97790000D02*
X113964819Y-98266190D01*
X113964819Y-98790000D02*
X114202914Y-98790000D01*
X114107676Y-98551905D02*
X114202914Y-98790000D01*
X114202914Y-98790000D02*
X114107676Y-99028095D01*
X114393390Y-98647143D02*
X114202914Y-98790000D01*
X114202914Y-98790000D02*
X114393390Y-98932857D01*
X113964819Y-99551905D02*
X114202914Y-99551905D01*
X114107676Y-99313810D02*
X114202914Y-99551905D01*
X114202914Y-99551905D02*
X114107676Y-99790000D01*
X114393390Y-99409048D02*
X114202914Y-99551905D01*
X114202914Y-99551905D02*
X114393390Y-99694762D01*
D11*
%TO.C,REF\u002A\u002A*%
X166430000Y-95190000D02*
X166430000Y-100390000D01*
X118110000Y-95190000D02*
X166430000Y-95190000D01*
X118110000Y-95190000D02*
X118110000Y-97790000D01*
X116840000Y-95190000D02*
X115510000Y-95190000D01*
X115510000Y-95190000D02*
X115510000Y-96520000D01*
X118110000Y-97790000D02*
X115510000Y-97790000D01*
X115510000Y-97790000D02*
X115510000Y-100390000D01*
X115510000Y-100390000D02*
X166430000Y-100390000D01*
%TD*%
M02*
