%TF.GenerationSoftware,KiCad,Pcbnew,7.0.7*%
%TF.CreationDate,2023-12-05T07:46:16-07:00*%
%TF.ProjectId,kicad,6b696361-642e-46b6-9963-61645f706362,rev?*%
%TF.SameCoordinates,Original*%
%TF.FileFunction,Copper,L2,Bot*%
%TF.FilePolarity,Positive*%
%FSLAX46Y46*%
G04 Gerber Fmt 4.6, Leading zero omitted, Abs format (unit mm)*
G04 Created by KiCad (PCBNEW 7.0.7) date 2023-12-05 07:46:16*
%MOMM*%
%LPD*%
G01*
G04 APERTURE LIST*
%TA.AperFunction,ComponentPad*%
%ADD10C,1.400000*%
%TD*%
%TA.AperFunction,ComponentPad*%
%ADD11R,1.700000X1.700000*%
%TD*%
%TA.AperFunction,ComponentPad*%
%ADD12O,1.700000X1.700000*%
%TD*%
G04 APERTURE END LIST*
D10*
%TO.P,1,1*%
%TO.N,N/C*%
X134620000Y-119380000D03*
%TD*%
%TO.P,1,1*%
%TO.N,N/C*%
X139700000Y-106680000D03*
%TD*%
%TO.P,1,1*%
%TO.N,N/C*%
X144780000Y-119380000D03*
%TD*%
%TO.P,1,1*%
%TO.N,N/C*%
X109220000Y-91440000D03*
%TD*%
%TO.P,1,1*%
%TO.N,N/C*%
X132080000Y-119380000D03*
%TD*%
%TO.P,1,1*%
%TO.N,N/C*%
X139700000Y-119380000D03*
%TD*%
%TO.P,1,1*%
%TO.N,N/C*%
X147320000Y-119380000D03*
%TD*%
%TO.P,1,1*%
%TO.N,N/C*%
X134620000Y-86360000D03*
%TD*%
%TO.P,1,1*%
%TO.N,N/C*%
X149860000Y-119380000D03*
%TD*%
%TO.P,1,1*%
%TO.N,N/C*%
X144780000Y-106680000D03*
%TD*%
%TO.P,1,1*%
%TO.N,N/C*%
X137160000Y-119380000D03*
%TD*%
%TO.P,4,1*%
%TO.N,N/C*%
X142240000Y-86360000D03*
%TD*%
%TO.P,1,1*%
%TO.N,N/C*%
X142240000Y-106680000D03*
%TD*%
%TO.P,1,1*%
%TO.N,N/C*%
X142240000Y-119380000D03*
%TD*%
%TO.P,1,1*%
%TO.N,N/C*%
X116840000Y-83820000D03*
%TD*%
%TO.P,3,1*%
%TO.N,N/C*%
X139700000Y-86360000D03*
%TD*%
%TO.P,1,1*%
%TO.N,N/C*%
X142240000Y-114300000D03*
%TD*%
%TO.P,1,1*%
%TO.N,N/C*%
X144780000Y-114300000D03*
%TD*%
%TO.P,2,1*%
%TO.N,N/C*%
X137160000Y-86360000D03*
%TD*%
%TO.P,1,1*%
%TO.N,N/C*%
X139700000Y-114300000D03*
%TD*%
%TO.P,1,1*%
%TO.N,N/C*%
X119380000Y-104140000D03*
%TD*%
%TO.P,1,1*%
%TO.N,N/C*%
X116840000Y-91440000D03*
%TD*%
D11*
%TO.P,REF\u002A\u002A,1*%
%TO.N,N/C*%
X116840000Y-96520000D03*
D12*
%TO.P,REF\u002A\u002A,2*%
X116840000Y-99060000D03*
%TO.P,REF\u002A\u002A,3*%
X119380000Y-96520000D03*
%TO.P,REF\u002A\u002A,4*%
X119380000Y-99060000D03*
%TO.P,REF\u002A\u002A,5*%
X121920000Y-96520000D03*
%TO.P,REF\u002A\u002A,6*%
X121920000Y-99060000D03*
%TO.P,REF\u002A\u002A,7*%
X124460000Y-96520000D03*
%TO.P,REF\u002A\u002A,8*%
X124460000Y-99060000D03*
%TO.P,REF\u002A\u002A,9*%
X127000000Y-96520000D03*
%TO.P,REF\u002A\u002A,10*%
X127000000Y-99060000D03*
%TO.P,REF\u002A\u002A,11*%
X129540000Y-96520000D03*
%TO.P,REF\u002A\u002A,12*%
X129540000Y-99060000D03*
%TO.P,REF\u002A\u002A,13*%
X132080000Y-96520000D03*
%TO.P,REF\u002A\u002A,14*%
X132080000Y-99060000D03*
%TO.P,REF\u002A\u002A,15*%
X134620000Y-96520000D03*
%TO.P,REF\u002A\u002A,16*%
X134620000Y-99060000D03*
%TO.P,REF\u002A\u002A,17*%
X137160000Y-96520000D03*
%TO.P,REF\u002A\u002A,18*%
X137160000Y-99060000D03*
%TO.P,REF\u002A\u002A,19*%
X139700000Y-96520000D03*
%TO.P,REF\u002A\u002A,20*%
X139700000Y-99060000D03*
%TO.P,REF\u002A\u002A,21*%
X142240000Y-96520000D03*
%TO.P,REF\u002A\u002A,22*%
X142240000Y-99060000D03*
%TO.P,REF\u002A\u002A,23*%
X144780000Y-96520000D03*
%TO.P,REF\u002A\u002A,24*%
X144780000Y-99060000D03*
%TO.P,REF\u002A\u002A,25*%
X147320000Y-96520000D03*
%TO.P,REF\u002A\u002A,26*%
X147320000Y-99060000D03*
%TO.P,REF\u002A\u002A,27*%
X149860000Y-96520000D03*
%TO.P,REF\u002A\u002A,28*%
X149860000Y-99060000D03*
%TO.P,REF\u002A\u002A,29*%
X152400000Y-96520000D03*
%TO.P,REF\u002A\u002A,30*%
X152400000Y-99060000D03*
%TO.P,REF\u002A\u002A,31*%
X154940000Y-96520000D03*
%TO.P,REF\u002A\u002A,32*%
X154940000Y-99060000D03*
%TO.P,REF\u002A\u002A,33*%
X157480000Y-96520000D03*
%TO.P,REF\u002A\u002A,34*%
X157480000Y-99060000D03*
%TO.P,REF\u002A\u002A,35*%
X160020000Y-96520000D03*
%TO.P,REF\u002A\u002A,36*%
X160020000Y-99060000D03*
%TO.P,REF\u002A\u002A,37*%
X162560000Y-96520000D03*
%TO.P,REF\u002A\u002A,38*%
X162560000Y-99060000D03*
%TO.P,REF\u002A\u002A,39*%
X165100000Y-96520000D03*
%TO.P,REF\u002A\u002A,40*%
X165100000Y-99060000D03*
%TD*%
M02*
